<svg xmlns="http://www.w3.org/2000/svg" xmlns:xlink="http://www.w3.org/1999/xlink" width="180" zoomAndPan="magnify" viewBox="0 0 135 135.000003" height="180" preserveAspectRatio="xMidYMid meet" version="1.0"><path fill="#8447ff" d="M 37.226562 41.910156 C 30.417969 55.691406 23.613281 69.472656 16.8125 83.257812 C 10.738281 95.546875 5.769531 105.789062 5.769531 106.015625 C 5.769531 106.382812 7.203125 106.425781 20.101562 106.417969 L 34.429688 106.414062 L 35.46875 104.554688 C 36.773438 102.21875 40.164062 98.621094 42.730469 96.84375 C 48.902344 92.582031 56.429688 91.226562 63.738281 93.070312 C 65.726562 93.570312 70.625 95.546875 74.371094 97.355469 C 76.488281 98.378906 82.90625 101.042969 84.960938 101.753906 C 91.089844 103.871094 96.449219 104.859375 102.910156 105.054688 C 108.214844 105.21875 112.117188 104.902344 117.035156 103.917969 C 120.277344 103.269531 127.03125 101.183594 127.859375 100.578125 C 128.257812 100.285156 127.914062 99.464844 124.171875 91.800781 C 121.828125 86.992188 119.898438 83.34375 119.699219 83.34375 C 119.511719 83.34375 118.21875 83.679688 116.832031 84.089844 C 104.871094 87.644531 92.015625 85.691406 82.023438 78.808594 C 77.339844 75.578125 72.582031 73.609375 66.21875 72.261719 C 63.28125 71.636719 62.40625 71.570312 57.320312 71.554688 C 53.546875 71.546875 51.648438 71.449219 51.578125 71.261719 C 51.519531 71.109375 54.425781 64.996094 58.039062 57.679688 C 65.558594 42.445312 65.164062 43.011719 68.265625 43.011719 C 71.15625 43.011719 71.1875 43.050781 76.203125 53.007812 C 80.996094 62.519531 82.203125 64.53125 84.757812 67.238281 C 91.246094 74.113281 100.726562 77.171875 109.773438 75.304688 C 112.441406 74.757812 115.222656 73.816406 115.222656 73.464844 C 115.222656 73.34375 109.664062 61.996094 102.871094 48.246094 L 90.519531 23.25 L 86.621094 23.082031 C 84.472656 22.988281 74.589844 22.910156 64.660156 22.910156 L 46.597656 22.910156 Z M 37.226562 41.910156 " fill-opacity="1" fill-rule="evenodd"/></svg>