<svg xmlns="http://www.w3.org/2000/svg" xmlns:xlink="http://www.w3.org/1999/xlink" width="500" zoomAndPan="magnify" viewBox="0 0 375 374.999991" height="500" preserveAspectRatio="xMidYMid meet" version="1.0"><path fill="#6949ff" d="M 109.328125 122.703125 C 91.75 158.289062 74.179688 193.878906 56.617188 229.464844 C 40.9375 261.203125 28.109375 287.648438 28.109375 288.234375 C 28.109375 289.1875 31.804688 289.292969 65.109375 289.277344 L 102.109375 289.261719 L 104.789062 284.464844 C 108.15625 278.433594 116.917969 269.136719 123.546875 264.554688 C 139.472656 253.542969 158.914062 250.050781 177.785156 254.804688 C 182.921875 256.101562 195.574219 261.199219 205.246094 265.871094 C 210.707031 268.511719 227.28125 275.398438 232.582031 277.230469 C 248.414062 282.703125 262.246094 285.246094 278.9375 285.757812 C 292.632812 286.175781 302.710938 285.363281 315.410156 282.820312 C 323.785156 281.140625 341.214844 275.761719 343.359375 274.195312 C 344.386719 273.441406 343.496094 271.320312 333.835938 251.527344 C 327.777344 239.113281 322.796875 229.6875 322.289062 229.6875 C 321.796875 229.6875 318.464844 230.558594 314.886719 231.621094 C 283.992188 240.796875 250.800781 235.757812 225 217.980469 C 212.90625 209.644531 200.625 204.558594 184.1875 201.074219 C 176.605469 199.46875 174.347656 199.289062 161.21875 199.253906 C 151.46875 199.230469 146.570312 198.980469 146.382812 198.496094 C 146.230469 198.097656 153.738281 182.320312 163.066406 163.429688 C 182.492188 124.085938 181.472656 125.550781 189.476562 125.550781 C 196.945312 125.550781 197.023438 125.652344 209.976562 151.359375 C 222.351562 175.921875 225.46875 181.113281 232.066406 188.105469 C 248.820312 205.863281 273.292969 213.757812 296.660156 208.9375 C 303.542969 207.519531 310.722656 205.089844 310.722656 204.179688 C 310.722656 203.871094 296.371094 174.570312 278.832031 139.066406 L 246.941406 74.519531 L 236.871094 74.082031 C 231.328125 73.84375 205.8125 73.648438 180.164062 73.648438 L 133.53125 73.648438 Z M 109.328125 122.703125 " fill-opacity="1" fill-rule="evenodd"/></svg>