<svg xmlns="http://www.w3.org/2000/svg" xmlns:xlink="http://www.w3.org/1999/xlink" width="1869" zoomAndPan="magnify" viewBox="0 0 1401.75 225.75" height="301" preserveAspectRatio="xMidYMid meet" version="1.0"><defs><g/></defs><path fill="#854afb" d="M 172.78125 53.355469 C 156.667969 85.976562 140.5625 118.59375 124.464844 151.214844 C 110.09375 180.308594 98.335938 204.546875 98.335938 205.082031 C 98.335938 205.957031 101.722656 206.050781 132.25 206.039062 L 166.164062 206.023438 L 168.621094 201.628906 C 171.707031 196.101562 179.738281 187.578125 185.8125 183.375 C 200.414062 173.285156 218.230469 170.082031 235.53125 174.441406 C 240.238281 175.628906 251.832031 180.300781 260.699219 184.585938 C 265.707031 187.003906 280.898438 193.316406 285.757812 194.996094 C 300.269531 200.011719 312.949219 202.34375 328.246094 202.8125 C 340.800781 203.195312 350.035156 202.449219 361.675781 200.117188 C 369.351562 198.582031 385.328125 193.648438 387.292969 192.214844 C 388.238281 191.523438 387.421875 189.582031 378.566406 171.4375 C 373.011719 160.058594 368.445312 151.417969 367.980469 151.417969 C 367.53125 151.417969 364.476562 152.21875 361.195312 153.191406 C 332.878906 161.601562 302.453125 156.984375 278.808594 140.6875 C 267.722656 133.046875 256.464844 128.382812 241.398438 125.191406 C 234.445312 123.71875 232.375 123.554688 220.34375 123.523438 C 211.40625 123.5 206.917969 123.269531 206.746094 122.828125 C 206.605469 122.464844 213.488281 108 222.039062 90.683594 C 239.84375 54.625 238.90625 55.964844 246.246094 55.964844 C 253.089844 55.964844 253.164062 56.058594 265.035156 79.625 C 276.378906 102.136719 279.238281 106.894531 285.285156 113.304688 C 300.636719 129.582031 323.074219 136.816406 344.488281 132.398438 C 350.796875 131.097656 357.378906 128.871094 357.378906 128.039062 C 357.378906 127.753906 344.226562 100.898438 328.148438 68.355469 L 298.917969 9.191406 L 289.6875 8.792969 C 284.609375 8.570312 261.21875 8.390625 237.707031 8.390625 L 194.964844 8.390625 Z M 172.78125 53.355469 " fill-opacity="1" fill-rule="evenodd"/><g fill="#ffffff" fill-opacity="1"><g transform="translate(447.08929, 181.370474)"><g><path d="M 145.59375 0 L 117.796875 0 L 106.375 -27.8125 L 40.171875 -27.8125 L 28.765625 0 L 0.953125 0 L 60.796875 -143.90625 L 85.75 -143.90625 Z M 72.328125 -106.46875 L 49.171875 -49.796875 L 97.375 -49.796875 L 74.125 -106.46875 L 73.484375 -109.96875 L 73.171875 -109.96875 Z M 72.328125 -106.46875 "/></g></g></g><g fill="#ffffff" fill-opacity="1"><g transform="translate(605.433825, 181.370474)"><g><path d="M 148.234375 -111.96875 C 161.910156 -111.96875 172.132812 -107.332031 178.90625 -98.0625 C 185.675781 -88.800781 189.0625 -75.640625 189.0625 -58.578125 L 189.0625 0 L 163.78125 0 L 163.78125 -58.046875 C 163.78125 -68.765625 161.71875 -76.5 157.59375 -81.25 C 153.46875 -86.007812 147.882812 -88.390625 140.84375 -88.390625 C 136.332031 -88.390625 132.066406 -87.015625 128.046875 -84.265625 C 124.023438 -81.515625 120.78125 -77.671875 118.3125 -72.734375 C 115.851562 -67.804688 114.625 -62.066406 114.625 -55.515625 L 114.625 0 L 89.34375 0 L 89.34375 -58.046875 C 89.34375 -68.765625 87.28125 -76.5 83.15625 -81.25 C 79.03125 -86.007812 73.476562 -88.390625 66.5 -88.390625 C 61.925781 -88.390625 57.644531 -87.015625 53.65625 -84.265625 C 49.675781 -81.515625 46.453125 -77.671875 43.984375 -72.734375 C 41.515625 -67.804688 40.28125 -62.066406 40.28125 -55.515625 L 40.28125 0 L 15.015625 0 L 15.015625 -108.703125 L 38.90625 -108.703125 L 39.234375 -91.78125 C 41.128906 -95.65625 43.769531 -99.109375 47.15625 -102.140625 C 50.539062 -105.171875 54.503906 -107.566406 59.046875 -109.328125 C 63.597656 -111.085938 68.550781 -111.96875 73.90625 -111.96875 C 83 -111.96875 90.554688 -109.867188 96.578125 -105.671875 C 102.609375 -101.484375 107.140625 -95.40625 110.171875 -87.4375 C 114.828125 -95.832031 120.394531 -102.019531 126.875 -106 C 133.363281 -109.976562 140.484375 -111.96875 148.234375 -111.96875 Z M 148.234375 -111.96875 "/></g></g></g><g fill="#ffffff" fill-opacity="1"><g transform="translate(820.345251, 181.370474)"><g><path d="M 63.859375 3.28125 C 56.597656 3.28125 49.863281 2.273438 43.65625 0.265625 C 37.457031 -1.742188 32.03125 -4.898438 27.375 -9.203125 C 22.726562 -13.503906 19.117188 -19.070312 16.546875 -25.90625 C 13.972656 -32.738281 12.6875 -40.984375 12.6875 -50.640625 L 12.6875 -108.703125 L 38.0625 -108.703125 L 38.0625 -51.390625 C 38.0625 -41.378906 40.210938 -33.726562 44.515625 -28.4375 C 48.816406 -23.15625 55.234375 -20.515625 63.765625 -20.515625 C 72.359375 -20.515625 78.769531 -23.175781 83 -28.5 C 87.226562 -33.820312 89.34375 -41.453125 89.34375 -51.390625 L 89.34375 -108.703125 L 114.828125 -108.703125 L 114.828125 -50.640625 C 114.828125 -40.984375 113.539062 -32.738281 110.96875 -25.90625 C 108.394531 -19.070312 104.78125 -13.503906 100.125 -9.203125 C 95.476562 -4.898438 90.070312 -1.742188 83.90625 0.265625 C 77.738281 2.273438 71.054688 3.28125 63.859375 3.28125 Z M 63.859375 3.28125 "/></g></g></g><g fill="#ffffff" fill-opacity="1"><g transform="translate(959.5522, 181.370474)"><g><path d="M 40.609375 0 L 15.015625 0 L 15.015625 -108.703125 L 39.546875 -108.703125 L 39.546875 -89.03125 C 42.085938 -95.019531 45.820312 -99.796875 50.75 -103.359375 C 55.6875 -106.921875 61.679688 -108.703125 68.734375 -108.703125 L 80.359375 -108.703125 L 80.359375 -86.703125 L 70.109375 -86.703125 C 64.253906 -86.703125 59.101562 -85.289062 54.65625 -82.46875 C 50.21875 -79.65625 46.765625 -75.566406 44.296875 -70.203125 C 41.835938 -64.847656 40.609375 -58.296875 40.609375 -50.546875 Z M 40.609375 0 "/></g></g></g><g fill="#ffffff" fill-opacity="1"><g transform="translate(1054.880145, 181.370474)"><g><path d="M 58.46875 3.28125 C 51.132812 3.28125 44.347656 1.800781 38.109375 -1.15625 C 31.878906 -4.125 26.453125 -8.25 21.828125 -13.53125 C 17.210938 -18.820312 13.632812 -24.957031 11.09375 -31.9375 C 8.5625 -38.914062 7.296875 -46.382812 7.296875 -54.34375 C 7.296875 -62.3125 8.582031 -69.765625 11.15625 -76.703125 C 13.726562 -83.648438 17.320312 -89.765625 21.9375 -95.046875 C 26.550781 -100.335938 31.957031 -104.476562 38.15625 -107.46875 C 44.363281 -110.46875 51.097656 -111.96875 58.359375 -111.96875 C 67.242188 -111.96875 75.140625 -110.046875 82.046875 -106.203125 C 88.953125 -102.367188 94.132812 -97.066406 97.59375 -90.296875 L 97.59375 -108.703125 L 121.90625 -108.703125 L 121.90625 0 L 97.59375 0 L 97.59375 -18.296875 C 94.070312 -11.523438 88.875 -6.234375 82 -2.421875 C 75.125 1.378906 67.28125 3.28125 58.46875 3.28125 Z M 64.609375 -20.40625 C 69.046875 -20.40625 73.203125 -21.269531 77.078125 -23 C 80.953125 -24.726562 84.351562 -27.125 87.28125 -30.1875 C 90.207031 -33.25 92.476562 -36.84375 94.09375 -40.96875 C 95.71875 -45.09375 96.53125 -49.550781 96.53125 -54.34375 C 96.53125 -59.070312 95.703125 -63.492188 94.046875 -67.609375 C 92.390625 -71.734375 90.113281 -75.347656 87.21875 -78.453125 C 84.332031 -81.554688 80.953125 -83.972656 77.078125 -85.703125 C 73.203125 -87.429688 69.046875 -88.296875 64.609375 -88.296875 C 58.753906 -88.296875 53.410156 -86.882812 48.578125 -84.0625 C 43.753906 -81.238281 39.894531 -77.289062 37 -72.21875 C 34.113281 -67.144531 32.671875 -61.1875 32.671875 -54.34375 C 32.671875 -47.300781 34.132812 -41.238281 37.0625 -36.15625 C 39.988281 -31.082031 43.882812 -27.1875 48.75 -24.46875 C 53.613281 -21.757812 58.898438 -20.40625 64.609375 -20.40625 Z M 64.609375 -20.40625 "/></g></g></g></svg>