<svg xmlns="http://www.w3.org/2000/svg" xmlns:xlink="http://www.w3.org/1999/xlink" width="500" zoomAndPan="magnify" viewBox="0 0 375 374.999991" height="500" preserveAspectRatio="xMidYMid meet" version="1.0"><defs><clipPath id="0b3944eeff"><path d="M 19.609375 19.609375 L 355.390625 19.609375 L 355.390625 355.390625 L 19.609375 355.390625 Z M 19.609375 19.609375 " clip-rule="nonzero"/></clipPath><clipPath id="62327411b7"><path d="M 187.5 19.609375 C 94.777344 19.609375 19.609375 94.777344 19.609375 187.5 C 19.609375 280.222656 94.777344 355.390625 187.5 355.390625 C 280.222656 355.390625 355.390625 280.222656 355.390625 187.5 C 355.390625 94.777344 280.222656 19.609375 187.5 19.609375 Z M 187.5 19.609375 " clip-rule="nonzero"/></clipPath><clipPath id="3f298ae08d"><path d="M 86.375 166 L 288.875 166 L 288.875 294.960938 L 86.375 294.960938 Z M 86.375 166 " clip-rule="nonzero"/></clipPath><clipPath id="dd2a02ad25"><path d="M 170 79.710938 L 205 79.710938 L 205 146 L 170 146 Z M 170 79.710938 " clip-rule="nonzero"/></clipPath><clipPath id="bfb0c93541"><path d="M 213 119 L 288.875 119 L 288.875 172 L 213 172 Z M 213 119 " clip-rule="nonzero"/></clipPath><clipPath id="bc5364795a"><path d="M 86.375 119 L 161 119 L 161 172 L 86.375 172 Z M 86.375 119 " clip-rule="nonzero"/></clipPath></defs><g clip-path="url(#0b3944eeff)"><g clip-path="url(#62327411b7)"><path fill="#033017" d="M 19.609375 19.609375 L 355.390625 19.609375 L 355.390625 355.390625 L 19.609375 355.390625 Z M 19.609375 19.609375 " fill-opacity="1" fill-rule="nonzero"/></g></g><g clip-path="url(#3f298ae08d)"><path fill="#ffffff" d="M 191.199219 167.191406 C 194.308594 168.949219 196.875 170.855469 199.628906 173.101562 C 204.171875 176.476562 209.296875 178.96875 214.265625 181.65625 C 222.113281 186.015625 229.914062 190.4375 237.640625 195.011719 C 243.078125 198.226562 248.546875 201.386719 254.027344 204.535156 C 257.4375 206.492188 260.847656 208.457031 264.253906 210.421875 C 268.199219 212.695312 272.15625 214.945312 276.128906 217.167969 C 277.699219 218.058594 279.269531 218.945312 280.839844 219.835938 C 281.546875 220.226562 282.257812 220.617188 282.992188 221.015625 C 287.589844 223.644531 287.589844 223.644531 288.746094 225.960938 C 288.941406 229.390625 287.492188 231.375 285.792969 234.332031 C 285.464844 234.90625 285.136719 235.480469 284.796875 236.074219 C 284.097656 237.285156 283.394531 238.492188 282.683594 239.695312 C 281.601562 241.539062 280.546875 243.398438 279.492188 245.257812 C 278.808594 246.433594 278.125 247.609375 277.441406 248.785156 C 276.507812 250.386719 276.507812 250.386719 275.558594 252.023438 C 273.6875 254.484375 273.6875 254.484375 271.753906 255.511719 C 268.714844 255.484375 267.011719 254.359375 264.410156 252.8125 C 263.367188 252.203125 262.328125 251.59375 261.257812 250.964844 C 260.136719 250.292969 259.019531 249.621094 257.867188 248.929688 C 256.695312 248.238281 255.527344 247.550781 254.355469 246.863281 C 251.90625 245.425781 249.464844 243.984375 247.023438 242.535156 C 241.136719 239.054688 235.199219 235.667969 229.265625 232.269531 C 221.105469 227.582031 212.96875 222.863281 204.835938 218.132812 C 204.835938 243.457031 204.835938 268.78125 204.835938 294.871094 C 193.476562 294.871094 182.117188 294.871094 170.414062 294.871094 C 170.414062 269.546875 170.414062 244.222656 170.414062 218.132812 C 161.726562 223.132812 153.039062 228.128906 144.085938 233.277344 C 141.480469 234.777344 138.871094 236.277344 136.183594 237.824219 C 135.136719 238.425781 134.089844 239.027344 133.007812 239.648438 C 130.972656 240.820312 128.9375 241.988281 126.902344 243.160156 C 125.871094 243.75 124.84375 244.34375 123.78125 244.953125 C 122.300781 245.800781 122.300781 245.800781 120.792969 246.660156 C 118.660156 247.902344 116.542969 249.175781 114.4375 250.472656 C 113.359375 251.128906 112.285156 251.785156 111.171875 252.464844 C 110.203125 253.066406 109.234375 253.671875 108.234375 254.292969 C 105.613281 255.492188 105.613281 255.492188 103.472656 255.535156 C 100.535156 253.917969 99.480469 251.65625 97.808594 248.785156 C 97.476562 248.210938 97.140625 247.640625 96.796875 247.050781 C 96.097656 245.84375 95.402344 244.628906 94.710938 243.414062 C 93.65625 241.554688 92.574219 239.710938 91.488281 237.867188 C 90.808594 236.691406 90.132812 235.511719 89.457031 234.332031 C 88.839844 233.261719 88.222656 232.1875 87.589844 231.082031 C 86.375 228.230469 86.375 228.230469 86.378906 226.027344 C 87.84375 223.355469 89.664062 222.492188 92.320312 221.015625 C 93.890625 220.128906 93.890625 220.128906 95.496094 219.222656 C 96.640625 218.59375 97.789062 217.960938 98.96875 217.3125 C 100.164062 216.640625 101.359375 215.96875 102.554688 215.296875 C 105.035156 213.898438 107.523438 212.507812 110.015625 211.117188 C 115.667969 207.960938 121.269531 204.710938 126.875 201.472656 C 129.0625 200.214844 131.25 198.957031 133.4375 197.699219 C 139.015625 194.488281 144.59375 191.277344 150.167969 188.058594 C 152.382812 186.789062 154.597656 185.527344 156.820312 184.273438 C 162.089844 181.285156 167.226562 178.222656 172.242188 174.824219 C 185.171875 166.253906 185.171875 166.253906 191.199219 167.191406 Z M 191.199219 167.191406 " fill-opacity="1" fill-rule="nonzero"/></g><g clip-path="url(#dd2a02ad25)"><path fill="#15ab5a" d="M 170.414062 79.800781 C 181.773438 79.800781 193.132812 79.800781 204.835938 79.800781 C 204.835938 101.460938 204.835938 123.117188 204.835938 145.433594 C 193.476562 145.433594 182.117188 145.433594 170.414062 145.433594 C 170.414062 123.773438 170.414062 102.117188 170.414062 79.800781 Z M 170.414062 79.800781 " fill-opacity="1" fill-rule="nonzero"/></g><g clip-path="url(#bfb0c93541)"><path fill="#15ab5a" d="M 271.65625 119.214844 C 274.757812 120.703125 275.730469 122.949219 277.441406 125.890625 C 277.773438 126.460938 278.109375 127.03125 278.453125 127.621094 C 279.152344 128.832031 279.847656 130.042969 280.539062 131.261719 C 281.59375 133.121094 282.675781 134.960938 283.761719 136.804688 C 284.441406 137.984375 285.117188 139.160156 285.792969 140.339844 C 286.410156 141.414062 287.023438 142.484375 287.660156 143.589844 C 288.875 146.441406 288.875 146.441406 288.886719 148.640625 C 287.363281 151.378906 285.398438 152.242188 282.652344 153.71875 C 281.570312 154.3125 280.484375 154.90625 279.367188 155.515625 C 278.226562 156.125 277.082031 156.734375 275.902344 157.359375 C 273.679688 158.566406 271.457031 159.769531 269.238281 160.976562 C 268.132812 161.570312 267.027344 162.160156 265.890625 162.769531 C 261.519531 165.1875 257.296875 167.816406 253.082031 170.492188 C 249.828125 171.9375 248.667969 171.84375 245.335938 170.675781 C 243.277344 169.65625 241.253906 168.558594 239.261719 167.40625 C 238.113281 166.746094 236.964844 166.082031 235.78125 165.402344 C 235.1875 165.054688 234.597656 164.707031 233.984375 164.351562 C 232.183594 163.296875 230.378906 162.257812 228.566406 161.21875 C 223.410156 158.230469 218.539062 155.308594 213.949219 151.492188 C 221.058594 146.535156 228.488281 142.320312 236.097656 138.175781 C 238.523438 136.847656 240.949219 135.519531 243.371094 134.1875 C 243.96875 133.859375 244.566406 133.53125 245.183594 133.191406 C 248.933594 131.121094 252.640625 128.988281 256.320312 126.796875 C 257.199219 126.273438 258.078125 125.75 258.984375 125.214844 C 260.605469 124.242188 262.222656 123.261719 263.828125 122.273438 C 264.542969 121.84375 265.257812 121.417969 265.996094 120.980469 C 266.605469 120.605469 267.214844 120.230469 267.84375 119.84375 C 269.636719 119.179688 269.636719 119.179688 271.65625 119.214844 Z M 271.65625 119.214844 " fill-opacity="1" fill-rule="nonzero"/></g><g clip-path="url(#bc5364795a)"><path fill="#15ab5a" d="M 102.574219 119.179688 C 106.464844 119.644531 109.25 120.898438 112.59375 122.882812 C 113.550781 123.445312 114.503906 124.007812 115.492188 124.589844 C 116.511719 125.199219 117.53125 125.808594 118.585938 126.4375 C 120.757812 127.722656 122.933594 129.007812 125.105469 130.289062 C 126.785156 131.285156 126.785156 131.285156 128.5 132.304688 C 131.917969 134.316406 135.355469 136.296875 138.800781 138.265625 C 139.898438 138.898438 140.996094 139.527344 142.128906 140.175781 C 144.242188 141.386719 146.355469 142.59375 148.472656 143.796875 C 149.433594 144.351562 150.390625 144.902344 151.378906 145.472656 C 152.222656 145.953125 153.066406 146.433594 153.933594 146.929688 C 156.375 148.554688 158.285156 150.367188 160.289062 152.5 C 159.039062 153.210938 159.039062 153.210938 157.765625 153.9375 C 154.660156 155.703125 151.558594 157.46875 148.453125 159.238281 C 147.113281 160 145.773438 160.761719 144.433594 161.527344 C 142.5 162.625 140.566406 163.726562 138.632812 164.828125 C 138.039062 165.164062 137.445312 165.503906 136.832031 165.851562 C 134.253906 167.320312 131.746094 168.789062 129.304688 170.472656 C 126.875 171.6875 126.875 171.6875 124.367188 171.554688 C 121.46875 170.558594 119.03125 169.289062 116.394531 167.734375 C 115.363281 167.132812 114.335938 166.527344 113.273438 165.90625 C 112.207031 165.273438 111.140625 164.640625 110.042969 163.988281 C 108.476562 163.070312 108.476562 163.070312 106.882812 162.136719 C 104.792969 160.90625 102.707031 159.664062 100.632812 158.414062 C 98.507812 157.136719 96.367188 155.894531 94.210938 154.675781 C 93.183594 154.074219 92.15625 153.472656 91.097656 152.855469 C 89.699219 152.0625 89.699219 152.0625 88.273438 151.25 C 87.332031 150.371094 87.332031 150.371094 86.375 149.472656 C 86.398438 145.316406 88.472656 142.175781 90.550781 138.664062 C 91.183594 137.59375 91.816406 136.519531 92.464844 135.414062 C 93.460938 133.75 93.460938 133.75 94.476562 132.054688 C 95.136719 130.929688 95.800781 129.804688 96.484375 128.644531 C 101.382812 120.367188 101.382812 120.367188 102.574219 119.179688 Z M 102.574219 119.179688 " fill-opacity="1" fill-rule="nonzero"/></g></svg>