<svg xmlns="http://www.w3.org/2000/svg" xmlns:xlink="http://www.w3.org/1999/xlink" width="500" zoomAndPan="magnify" viewBox="0 0 375 374.999991" height="500" preserveAspectRatio="xMidYMid meet" version="1.0"><defs><clipPath id="96999fb482"><path d="M 19.609375 19.609375 L 355.390625 19.609375 L 355.390625 355.390625 L 19.609375 355.390625 Z M 19.609375 19.609375 " clip-rule="nonzero"/></clipPath><clipPath id="faf8ef9c8a"><path d="M 187.5 19.609375 C 94.777344 19.609375 19.609375 94.777344 19.609375 187.5 C 19.609375 280.222656 94.777344 355.390625 187.5 355.390625 C 280.222656 355.390625 355.390625 280.222656 355.390625 187.5 C 355.390625 94.777344 280.222656 19.609375 187.5 19.609375 Z M 187.5 19.609375 " clip-rule="nonzero"/></clipPath></defs><g clip-path="url(#96999fb482)"><g clip-path="url(#faf8ef9c8a)"><path fill="#330067" d="M 19.609375 19.609375 L 355.390625 19.609375 L 355.390625 355.390625 L 19.609375 355.390625 Z M 19.609375 19.609375 " fill-opacity="1" fill-rule="nonzero"/></g></g><path fill="#dcb9ff" d="M 134.660156 143.703125 C 122.78125 167.753906 110.90625 191.808594 99.035156 215.863281 C 88.4375 237.316406 79.765625 255.1875 79.765625 255.582031 C 79.765625 256.226562 82.265625 256.296875 104.773438 256.289062 L 129.785156 256.277344 L 131.59375 253.035156 C 133.871094 248.960938 139.792969 242.675781 144.273438 239.578125 C 155.039062 232.136719 168.175781 229.773438 180.933594 232.988281 C 184.40625 233.863281 192.953125 237.308594 199.492188 240.46875 C 203.183594 242.253906 214.386719 246.90625 217.96875 248.144531 C 228.671875 251.84375 238.019531 253.566406 249.300781 253.910156 C 258.558594 254.191406 265.371094 253.644531 273.953125 251.921875 C 279.613281 250.789062 291.394531 247.152344 292.839844 246.09375 C 293.539062 245.585938 292.933594 244.152344 286.40625 230.773438 C 282.3125 222.382812 278.945312 216.011719 278.601562 216.011719 C 278.269531 216.011719 276.019531 216.601562 273.597656 217.320312 C 252.71875 223.519531 230.28125 220.117188 212.84375 208.097656 C 204.671875 202.464844 196.371094 199.027344 185.261719 196.671875 C 180.132812 195.585938 178.605469 195.464844 169.734375 195.441406 C 163.144531 195.425781 159.832031 195.257812 159.707031 194.929688 C 159.605469 194.664062 164.679688 183.996094 170.984375 171.226562 C 184.113281 144.636719 183.421875 145.625 188.835938 145.625 C 193.882812 145.625 193.933594 145.695312 202.691406 163.070312 C 211.054688 179.671875 213.164062 183.179688 217.621094 187.90625 C 228.941406 199.910156 245.484375 205.246094 261.277344 201.988281 C 265.929688 201.027344 270.785156 199.386719 270.785156 198.773438 C 270.785156 198.5625 261.085938 178.757812 249.230469 154.761719 L 227.675781 111.136719 L 220.867188 110.839844 C 217.121094 110.679688 199.875 110.546875 182.539062 110.546875 L 151.019531 110.546875 Z M 134.660156 143.703125 " fill-opacity="1" fill-rule="evenodd"/></svg>