<svg xmlns="http://www.w3.org/2000/svg" xmlns:xlink="http://www.w3.org/1999/xlink" width="500" zoomAndPan="magnify" viewBox="0 0 375 374.999991" height="500" preserveAspectRatio="xMidYMid meet" version="1.0"><defs><clipPath id="bbe91de64a"><path d="M 19.609375 19.609375 L 355.390625 19.609375 L 355.390625 355.390625 L 19.609375 355.390625 Z M 19.609375 19.609375 " clip-rule="nonzero"/></clipPath><clipPath id="a8c12d976d"><path d="M 187.5 19.609375 C 94.777344 19.609375 19.609375 94.777344 19.609375 187.5 C 19.609375 280.222656 94.777344 355.390625 187.5 355.390625 C 280.222656 355.390625 355.390625 280.222656 355.390625 187.5 C 355.390625 94.777344 280.222656 19.609375 187.5 19.609375 Z M 187.5 19.609375 " clip-rule="nonzero"/></clipPath><clipPath id="71cf4563c7"><path d="M 66 73 L 309 73 L 309 302.855469 L 66 302.855469 Z M 66 73 " clip-rule="nonzero"/></clipPath><clipPath id="d4cfd37308"><path d="M 66 73 L 309 73 L 309 302.855469 L 66 302.855469 Z M 66 73 " clip-rule="nonzero"/></clipPath><clipPath id="461be889ee"><path d="M 187.40625 73.035156 C 194.164062 73.035156 200.878906 73.597656 207.542969 74.71875 C 214.207031 75.839844 220.734375 77.507812 227.121094 79.71875 C 233.507812 81.929688 239.667969 84.65625 245.597656 87.898438 C 251.53125 91.136719 257.152344 94.847656 262.464844 99.027344 C 267.773438 103.207031 272.703125 107.800781 277.25 112.800781 C 281.792969 117.804688 285.890625 123.148438 289.542969 128.835938 C 293.195312 134.523438 296.351562 140.476562 299.007812 146.691406 C 301.667969 152.90625 303.789062 159.296875 305.378906 165.867188 C 306.972656 172.4375 308.003906 179.089844 308.484375 185.832031 C 308.960938 192.574219 308.878906 199.3125 308.230469 206.039062 C 307.585938 212.765625 306.386719 219.394531 304.632812 225.921875 C 302.878906 232.449219 300.597656 238.785156 297.785156 244.933594 C 294.972656 251.078125 291.671875 256.949219 287.878906 262.546875 C 284.085938 268.140625 279.855469 273.382812 275.1875 278.269531 C 270.519531 283.15625 265.476562 287.625 260.0625 291.671875 C 254.648438 295.71875 248.9375 299.285156 242.925781 302.378906 C 237.84375 299.125 233.246094 295.292969 229.128906 290.882812 C 225.011719 286.472656 221.507812 281.621094 218.613281 276.328125 C 215.71875 271.035156 213.523438 265.464844 212.03125 259.621094 C 210.539062 253.773438 209.796875 247.835938 209.800781 241.800781 L 209.800781 135.011719 C 206.859375 135.011719 203.945312 135.296875 201.0625 135.871094 C 198.179688 136.445312 195.378906 137.292969 192.660156 138.417969 C 189.945312 139.542969 187.363281 140.921875 184.917969 142.558594 C 182.472656 144.191406 180.210938 146.046875 178.132812 148.125 C 176.050781 150.203125 174.195312 152.46875 172.5625 154.910156 C 170.929688 157.355469 169.546875 159.9375 168.421875 162.652344 C 167.296875 165.371094 166.449219 168.171875 165.875 171.054688 C 165.300781 173.9375 165.011719 176.851562 165.011719 179.792969 L 165.011719 241.800781 C 165.015625 247.835938 164.273438 253.773438 162.78125 259.621094 C 161.289062 265.464844 159.09375 271.035156 156.199219 276.328125 C 153.304688 281.621094 149.796875 286.472656 145.683594 290.882812 C 141.566406 295.292969 136.96875 299.125 131.886719 302.378906 C 125.875 299.285156 120.160156 295.71875 114.746094 291.671875 C 109.328125 287.628906 104.285156 283.160156 99.617188 278.273438 C 94.949219 273.386719 90.71875 268.144531 86.921875 262.546875 C 83.128906 256.953125 79.828125 251.082031 77.011719 244.9375 C 74.199219 238.789062 71.917969 232.453125 70.164062 225.921875 C 68.410156 219.394531 67.207031 212.765625 66.5625 206.039062 C 65.914062 199.308594 65.832031 192.574219 66.308594 185.832031 C 66.789062 179.089844 67.820312 172.433594 69.410156 165.863281 C 71.003906 159.292969 73.128906 152.898438 75.785156 146.683594 C 78.445312 140.46875 81.597656 134.515625 85.253906 128.828125 C 88.90625 123.140625 93.003906 117.796875 97.550781 112.792969 C 102.09375 107.789062 107.023438 103.199219 112.335938 99.019531 C 117.648438 94.839844 123.273438 91.128906 129.207031 87.890625 C 135.136719 84.648438 141.296875 81.921875 147.6875 79.710938 C 154.074219 77.5 160.601562 75.835938 167.265625 74.714844 C 173.933594 73.59375 180.644531 73.03125 187.40625 73.035156 M 187.40625 83.570312 C 188.929688 83.570312 190.441406 83.71875 191.933594 84.015625 C 193.429688 84.3125 194.882812 84.753906 196.289062 85.335938 C 197.699219 85.917969 199.035156 86.636719 200.304688 87.480469 C 201.570312 88.328125 202.746094 89.292969 203.820312 90.367188 C 204.898438 91.445312 205.863281 92.621094 206.710938 93.886719 C 207.554688 95.15625 208.269531 96.492188 208.855469 97.902344 C 209.4375 99.308594 209.878906 100.761719 210.175781 102.253906 C 210.472656 103.75 210.621094 105.261719 210.621094 106.785156 C 210.621094 108.308594 210.472656 109.820312 210.175781 111.3125 C 209.878906 112.808594 209.4375 114.261719 208.855469 115.667969 C 208.269531 117.078125 207.554688 118.414062 206.710938 119.683594 C 205.863281 120.949219 204.898438 122.121094 203.820312 123.199219 C 202.746094 124.277344 201.570312 125.242188 200.304688 126.089844 C 199.035156 126.933594 197.699219 127.648438 196.289062 128.234375 C 194.882812 128.816406 193.429688 129.257812 191.933594 129.554688 C 190.441406 129.851562 188.929688 130 187.40625 130 C 185.882812 130 184.371094 129.851562 182.878906 129.554688 C 181.382812 129.257812 179.929688 128.816406 178.523438 128.234375 C 177.113281 127.648438 175.777344 126.933594 174.507812 126.089844 C 173.242188 125.242188 172.066406 124.277344 170.992188 123.199219 C 169.914062 122.121094 168.949219 120.949219 168.101562 119.683594 C 167.257812 118.414062 166.542969 117.078125 165.957031 115.667969 C 165.375 114.261719 164.933594 112.808594 164.636719 111.3125 C 164.339844 109.820312 164.191406 108.308594 164.191406 106.785156 C 164.191406 105.261719 164.339844 103.75 164.636719 102.253906 C 164.933594 100.761719 165.375 99.308594 165.957031 97.902344 C 166.542969 96.492188 167.257812 95.15625 168.101562 93.886719 C 168.949219 92.621094 169.914062 91.445312 170.992188 90.367188 C 172.066406 89.292969 173.242188 88.328125 174.507812 87.480469 C 175.777344 86.636719 177.113281 85.917969 178.523438 85.335938 C 179.929688 84.753906 181.382812 84.3125 182.878906 84.015625 C 184.371094 83.71875 185.882812 83.570312 187.40625 83.570312 Z M 187.40625 83.570312 " clip-rule="evenodd"/></clipPath></defs><g clip-path="url(#bbe91de64a)"><g clip-path="url(#a8c12d976d)"><path fill="#27ddb1" d="M 19.609375 19.609375 L 355.390625 19.609375 L 355.390625 355.390625 L 19.609375 355.390625 Z M 19.609375 19.609375 " fill-opacity="1" fill-rule="nonzero"/></g></g><g clip-path="url(#71cf4563c7)"><path fill="#ffffff" d="M 187.40625 73.035156 C 190.78125 73.035156 194.148438 73.175781 197.507812 73.457031 C 200.871094 73.738281 204.214844 74.15625 207.542969 74.71875 C 210.871094 75.277344 214.167969 75.976562 217.4375 76.808594 C 220.703125 77.644531 223.933594 78.613281 227.121094 79.71875 C 230.308594 80.824219 233.445312 82.058594 236.53125 83.421875 C 239.613281 84.789062 242.636719 86.28125 245.597656 87.898438 C 248.558594 89.515625 251.445312 91.253906 254.261719 93.109375 C 257.078125 94.96875 259.8125 96.941406 262.464844 99.027344 C 265.113281 101.113281 267.675781 103.308594 270.144531 105.605469 C 272.609375 107.90625 274.980469 110.304688 277.25 112.800781 C 279.515625 115.300781 281.675781 117.886719 283.730469 120.5625 C 285.78125 123.242188 287.71875 126 289.542969 128.835938 C 291.367188 131.675781 293.066406 134.585938 294.648438 137.566406 C 296.226562 140.546875 297.679688 143.589844 299.007812 146.691406 C 300.335938 149.792969 301.53125 152.945312 302.59375 156.144531 C 303.65625 159.347656 304.585938 162.585938 305.378906 165.867188 C 306.175781 169.144531 306.832031 172.453125 307.347656 175.785156 C 307.867188 179.117188 308.246094 182.46875 308.484375 185.832031 C 308.722656 189.199219 308.820312 192.566406 308.78125 195.941406 C 308.738281 199.316406 308.554688 202.679688 308.230469 206.039062 C 307.910156 209.398438 307.449219 212.734375 306.847656 216.054688 C 306.246094 219.375 305.507812 222.664062 304.632812 225.921875 C 303.757812 229.179688 302.75 232.398438 301.605469 235.570312 C 300.460938 238.746094 299.1875 241.867188 297.785156 244.933594 C 296.382812 248 294.851562 251.003906 293.199219 253.945312 C 291.542969 256.886719 289.769531 259.753906 287.878906 262.546875 C 285.984375 265.335938 283.980469 268.046875 281.859375 270.671875 C 279.742188 273.296875 277.515625 275.828125 275.1875 278.269531 C 272.855469 280.710938 270.429688 283.046875 267.90625 285.285156 C 265.378906 287.523438 262.765625 289.652344 260.0625 291.671875 C 257.359375 293.691406 254.578125 295.59375 251.71875 297.382812 C 248.855469 299.167969 245.925781 300.835938 242.925781 302.378906 C 240.394531 300.757812 237.976562 298.988281 235.667969 297.0625 C 233.359375 295.140625 231.179688 293.078125 229.128906 290.882812 C 227.078125 288.6875 225.175781 286.371094 223.414062 283.933594 C 221.65625 281.5 220.054688 278.964844 218.613281 276.328125 C 217.171875 273.691406 215.898438 270.976562 214.800781 268.179688 C 213.699219 265.382812 212.777344 262.53125 212.03125 259.621094 C 211.289062 256.707031 210.730469 253.761719 210.355469 250.78125 C 209.984375 247.800781 209.796875 244.804688 209.800781 241.800781 L 209.800781 135.011719 C 208.332031 135.011719 206.867188 135.085938 205.410156 135.226562 C 203.949219 135.371094 202.5 135.585938 201.0625 135.871094 C 199.625 136.15625 198.203125 136.515625 196.796875 136.9375 C 195.394531 137.363281 194.015625 137.859375 192.660156 138.417969 C 191.304688 138.980469 189.980469 139.605469 188.6875 140.296875 C 187.394531 140.988281 186.136719 141.742188 184.917969 142.558594 C 183.699219 143.371094 182.523438 144.246094 181.386719 145.175781 C 180.253906 146.105469 179.167969 147.089844 178.132812 148.125 C 177.09375 149.164062 176.109375 150.25 175.179688 151.382812 C 174.25 152.515625 173.375 153.691406 172.5625 154.910156 C 171.746094 156.132812 170.992188 157.386719 170.300781 158.679688 C 169.609375 159.976562 168.984375 161.300781 168.421875 162.652344 C 167.863281 164.007812 167.367188 165.386719 166.941406 166.792969 C 166.515625 168.195312 166.160156 169.617188 165.875 171.054688 C 165.589844 172.492188 165.371094 173.941406 165.230469 175.402344 C 165.085938 176.863281 165.011719 178.324219 165.011719 179.792969 L 165.011719 241.800781 C 165.015625 244.804688 164.828125 247.800781 164.457031 250.78125 C 164.082031 253.761719 163.523438 256.707031 162.78125 259.621094 C 162.035156 262.53125 161.113281 265.382812 160.011719 268.179688 C 158.914062 270.976562 157.640625 273.691406 156.199219 276.328125 C 154.757812 278.964844 153.15625 281.5 151.398438 283.933594 C 149.636719 286.371094 147.734375 288.6875 145.683594 290.882812 C 143.632812 293.078125 141.453125 295.140625 139.144531 297.0625 C 136.835938 298.988281 134.417969 300.757812 131.886719 302.378906 C 128.886719 300.835938 125.953125 299.171875 123.09375 297.382812 C 120.230469 295.59375 117.449219 293.691406 114.746094 291.671875 C 112.042969 289.652344 109.425781 287.527344 106.902344 285.289062 C 104.375 283.050781 101.949219 280.710938 99.617188 278.273438 C 97.289062 275.832031 95.0625 273.300781 92.941406 270.675781 C 90.824219 268.050781 88.816406 265.339844 86.921875 262.546875 C 85.03125 259.757812 83.253906 256.890625 81.601562 253.949219 C 79.945312 251.007812 78.417969 248.003906 77.011719 244.9375 C 75.609375 241.867188 74.335938 238.746094 73.191406 235.574219 C 72.046875 232.398438 71.039062 229.183594 70.164062 225.921875 C 69.289062 222.664062 68.546875 219.375 67.949219 216.054688 C 67.347656 212.734375 66.882812 209.398438 66.5625 206.039062 C 66.238281 202.679688 66.054688 199.3125 66.015625 195.941406 C 65.972656 192.566406 66.070312 189.195312 66.308594 185.832031 C 66.546875 182.464844 66.925781 179.117188 67.445312 175.78125 C 67.960938 172.449219 68.617188 169.140625 69.410156 165.863281 C 70.207031 162.582031 71.136719 159.34375 72.199219 156.140625 C 73.261719 152.9375 74.457031 149.785156 75.785156 146.683594 C 77.113281 143.582031 78.566406 140.539062 80.148438 137.558594 C 81.726562 134.578125 83.429688 131.667969 85.253906 128.828125 C 87.074219 125.992188 89.011719 123.230469 91.066406 120.554688 C 93.121094 117.878906 95.28125 115.289062 97.550781 112.792969 C 99.820312 110.296875 102.1875 107.898438 104.65625 105.597656 C 107.125 103.296875 109.6875 101.105469 112.335938 99.019531 C 114.988281 96.933594 117.722656 94.960938 120.539062 93.101562 C 123.355469 91.242188 126.246094 89.507812 129.207031 87.890625 C 132.167969 86.273438 135.191406 84.78125 138.273438 83.414062 C 141.359375 82.050781 144.496094 80.816406 147.6875 79.710938 C 150.875 78.609375 154.101562 77.640625 157.371094 76.804688 C 160.640625 75.96875 163.941406 75.273438 167.265625 74.714844 C 170.59375 74.15625 173.9375 73.734375 177.300781 73.453125 C 180.664062 73.171875 184.03125 73.035156 187.40625 73.035156 M 187.40625 83.570312 C 188.167969 83.570312 188.925781 83.605469 189.683594 83.679688 C 190.4375 83.753906 191.191406 83.867188 191.933594 84.015625 C 192.679688 84.164062 193.417969 84.347656 194.144531 84.570312 C 194.871094 84.789062 195.589844 85.046875 196.289062 85.335938 C 196.992188 85.628906 197.679688 85.953125 198.351562 86.3125 C 199.019531 86.667969 199.671875 87.058594 200.304688 87.480469 C 200.9375 87.902344 201.546875 88.355469 202.132812 88.839844 C 202.722656 89.320312 203.285156 89.832031 203.820312 90.367188 C 204.359375 90.90625 204.871094 91.46875 205.351562 92.058594 C 205.835938 92.644531 206.285156 93.253906 206.710938 93.886719 C 207.132812 94.519531 207.523438 95.171875 207.878906 95.839844 C 208.238281 96.511719 208.5625 97.199219 208.855469 97.902344 C 209.144531 98.601562 209.402344 99.316406 209.621094 100.046875 C 209.84375 100.773438 210.027344 101.511719 210.175781 102.253906 C 210.324219 103 210.433594 103.753906 210.511719 104.507812 C 210.585938 105.265625 210.621094 106.023438 210.621094 106.785156 C 210.621094 107.546875 210.585938 108.304688 210.511719 109.058594 C 210.433594 109.816406 210.324219 110.566406 210.175781 111.3125 C 210.027344 112.058594 209.84375 112.796875 209.621094 113.523438 C 209.402344 114.25 209.144531 114.964844 208.855469 115.667969 C 208.5625 116.371094 208.238281 117.058594 207.878906 117.730469 C 207.523438 118.398438 207.132812 119.050781 206.710938 119.683594 C 206.285156 120.316406 205.835938 120.925781 205.351562 121.511719 C 204.871094 122.101562 204.359375 122.664062 203.820312 123.199219 C 203.285156 123.738281 202.722656 124.25 202.132812 124.730469 C 201.546875 125.214844 200.9375 125.664062 200.304688 126.089844 C 199.671875 126.511719 199.019531 126.902344 198.351562 127.257812 C 197.679688 127.617188 196.992188 127.941406 196.289062 128.234375 C 195.589844 128.523438 194.871094 128.78125 194.144531 129 C 193.417969 129.222656 192.679688 129.40625 191.933594 129.554688 C 191.191406 129.703125 190.4375 129.8125 189.683594 129.886719 C 188.925781 129.964844 188.167969 130 187.40625 130 C 186.644531 130 185.886719 129.964844 185.128906 129.890625 C 184.375 129.8125 183.621094 129.703125 182.878906 129.554688 C 182.132812 129.40625 181.394531 129.222656 180.667969 129 C 179.941406 128.78125 179.222656 128.523438 178.523438 128.234375 C 177.820312 127.941406 177.132812 127.617188 176.460938 127.257812 C 175.792969 126.902344 175.140625 126.511719 174.507812 126.089844 C 173.875 125.664062 173.265625 125.214844 172.679688 124.730469 C 172.089844 124.25 171.527344 123.738281 170.992188 123.199219 C 170.453125 122.664062 169.941406 122.101562 169.460938 121.511719 C 168.976562 120.925781 168.527344 120.316406 168.101562 119.683594 C 167.679688 119.050781 167.289062 118.398438 166.933594 117.730469 C 166.574219 117.058594 166.25 116.371094 165.957031 115.667969 C 165.667969 114.964844 165.410156 114.25 165.191406 113.523438 C 164.96875 112.796875 164.785156 112.058594 164.636719 111.3125 C 164.488281 110.566406 164.378906 109.816406 164.300781 109.058594 C 164.226562 108.304688 164.191406 107.546875 164.191406 106.785156 C 164.191406 106.023438 164.226562 105.265625 164.300781 104.507812 C 164.378906 103.753906 164.488281 103 164.636719 102.253906 C 164.785156 101.511719 164.96875 100.773438 165.191406 100.046875 C 165.410156 99.316406 165.667969 98.601562 165.957031 97.902344 C 166.25 97.199219 166.574219 96.511719 166.933594 95.839844 C 167.289062 95.171875 167.679688 94.519531 168.101562 93.886719 C 168.527344 93.253906 168.976562 92.644531 169.460938 92.058594 C 169.941406 91.46875 170.453125 90.90625 170.992188 90.367188 C 171.527344 89.832031 172.089844 89.320312 172.679688 88.839844 C 173.265625 88.355469 173.875 87.902344 174.507812 87.480469 C 175.140625 87.058594 175.792969 86.667969 176.460938 86.3125 C 177.132812 85.953125 177.820312 85.628906 178.523438 85.335938 C 179.222656 85.046875 179.941406 84.789062 180.667969 84.570312 C 181.394531 84.347656 182.132812 84.164062 182.878906 84.015625 C 183.621094 83.867188 184.375 83.753906 185.128906 83.679688 C 185.886719 83.605469 186.644531 83.570312 187.40625 83.570312 Z M 187.40625 83.570312 " fill-opacity="1" fill-rule="evenodd"/></g><g clip-path="url(#d4cfd37308)"><g clip-path="url(#461be889ee)"><path fill="#ffffff" d="M -48.457031 181.191406 L 194.296875 -48.152344 L 423.269531 194.210938 L 180.515625 423.554688 Z M -48.457031 181.191406 " fill-opacity="1" fill-rule="nonzero"/></g></g></svg>