<svg xmlns="http://www.w3.org/2000/svg" xmlns:xlink="http://www.w3.org/1999/xlink" width="500" zoomAndPan="magnify" viewBox="0 0 375 374.999991" height="500" preserveAspectRatio="xMidYMid meet" version="1.0"><defs><clipPath id="5e4a086f2a"><path d="M 19.609375 19.609375 L 355.390625 19.609375 L 355.390625 355.390625 L 19.609375 355.390625 Z M 19.609375 19.609375 " clip-rule="nonzero"/></clipPath><clipPath id="95f263c7fc"><path d="M 187.5 19.609375 C 94.777344 19.609375 19.609375 94.777344 19.609375 187.5 C 19.609375 280.222656 94.777344 355.390625 187.5 355.390625 C 280.222656 355.390625 355.390625 280.222656 355.390625 187.5 C 355.390625 94.777344 280.222656 19.609375 187.5 19.609375 Z M 187.5 19.609375 " clip-rule="nonzero"/></clipPath><clipPath id="6086814043"><path d="M 219 70.609375 L 309 70.609375 L 309 304.609375 L 219 304.609375 Z M 219 70.609375 " clip-rule="nonzero"/></clipPath><clipPath id="2c98916d66"><path d="M 66.054688 70.609375 L 156 70.609375 L 156 304.609375 L 66.054688 304.609375 Z M 66.054688 70.609375 " clip-rule="nonzero"/></clipPath></defs><g clip-path="url(#5e4a086f2a)"><g clip-path="url(#95f263c7fc)"><path fill="#1374d9" d="M 19.609375 19.609375 L 355.390625 19.609375 L 355.390625 355.390625 L 19.609375 355.390625 Z M 19.609375 19.609375 " fill-opacity="1" fill-rule="nonzero"/></g></g><path fill="#ffffff" d="M 232.761719 215.488281 C 232.761719 187.953125 208.082031 181.304688 190.046875 176.445312 C 170.34375 171.132812 164.210938 168.097656 164.210938 159.503906 C 164.210938 148.757812 177.992188 141.621094 187.101562 141.621094 C 194.996094 141.621094 210.355469 148.695312 210.355469 161.691406 L 230.609375 161.691406 C 230.609375 141.105469 214.425781 127.960938 198.882812 123.347656 L 198.882812 98.722656 L 176.203125 98.722656 L 176.203125 122.980469 C 159.382812 127.324219 143.988281 141.015625 143.988281 159.503906 C 143.988281 184.976562 167.578125 191.324219 184.792969 196 C 204.074219 201.191406 212.542969 204.621094 212.542969 215.488281 C 212.542969 230.09375 193.71875 233.371094 187.101562 233.371094 C 177.839844 233.371094 162.507812 225.023438 162.507812 215.488281 L 142.257812 215.488281 C 142.257812 234.402344 159.808594 247.582031 176.171875 251.921875 L 176.171875 276.269531 L 198.851562 276.269531 L 198.851562 252.195312 C 216.824219 248.339844 232.761719 235.832031 232.761719 215.488281 Z M 232.761719 215.488281 " fill-opacity="1" fill-rule="nonzero"/><g clip-path="url(#6086814043)"><path fill="#ffffff" d="M 219.890625 70.578125 L 219.890625 87.398438 C 262.121094 101.09375 292.753906 140.773438 292.753906 187.496094 C 292.753906 234.222656 262.121094 273.902344 219.890625 287.59375 L 219.890625 304.414062 C 271.167969 290.175781 308.9375 243.207031 308.9375 187.496094 C 308.9375 131.785156 271.140625 84.789062 219.890625 70.578125 Z M 219.890625 70.578125 " fill-opacity="1" fill-rule="nonzero"/></g><g clip-path="url(#2c98916d66)"><path fill="#ffffff" d="M 155.101562 287.59375 C 112.871094 273.902344 82.238281 234.222656 82.238281 187.496094 C 82.238281 140.773438 112.871094 101.09375 155.101562 87.398438 L 155.101562 70.578125 C 103.824219 84.789062 66.054688 131.753906 66.054688 187.496094 C 66.054688 243.238281 103.851562 290.207031 155.101562 304.414062 Z M 155.101562 287.59375 " fill-opacity="1" fill-rule="nonzero"/></g></svg>