<svg xmlns="http://www.w3.org/2000/svg" xmlns:xlink="http://www.w3.org/1999/xlink" width="500" zoomAndPan="magnify" viewBox="0 0 375 374.999991" height="500" preserveAspectRatio="xMidYMid meet" version="1.0"><defs><clipPath id="b74e766f99"><path d="M 19.609375 19.609375 L 355.390625 19.609375 L 355.390625 355.390625 L 19.609375 355.390625 Z M 19.609375 19.609375 " clip-rule="nonzero"/></clipPath><clipPath id="56abfba050"><path d="M 187.5 19.609375 C 94.777344 19.609375 19.609375 94.777344 19.609375 187.5 C 19.609375 280.222656 94.777344 355.390625 187.5 355.390625 C 280.222656 355.390625 355.390625 280.222656 355.390625 187.5 C 355.390625 94.777344 280.222656 19.609375 187.5 19.609375 Z M 187.5 19.609375 " clip-rule="nonzero"/></clipPath><clipPath id="91196a0f43"><path d="M 43.484375 43.484375 L 331.484375 43.484375 L 331.484375 331.484375 L 43.484375 331.484375 Z M 43.484375 43.484375 " clip-rule="nonzero"/></clipPath><clipPath id="1bf9fb9300"><path d="M 187.496094 43.484375 C 107.960938 43.484375 43.484375 107.960938 43.484375 187.496094 C 43.484375 267.03125 107.960938 331.507812 187.496094 331.507812 C 267.03125 331.507812 331.507812 267.03125 331.507812 187.496094 C 331.507812 107.960938 267.03125 43.484375 187.496094 43.484375 Z M 187.496094 43.484375 " clip-rule="nonzero"/></clipPath><clipPath id="979609f37f"><path d="M 144.214844 105 L 230.464844 105 L 230.464844 269.855469 L 144.214844 269.855469 Z M 144.214844 105 " clip-rule="nonzero"/></clipPath></defs><g clip-path="url(#b74e766f99)"><g clip-path="url(#56abfba050)"><path fill="#153761" d="M 19.609375 19.609375 L 355.390625 19.609375 L 355.390625 355.390625 L 19.609375 355.390625 Z M 19.609375 19.609375 " fill-opacity="1" fill-rule="nonzero"/></g></g><g clip-path="url(#91196a0f43)"><g clip-path="url(#1bf9fb9300)"><path stroke-linecap="butt" transform="matrix(0.75, 0, 0, 0.75, 43.48329, 43.483286)" fill="none" stroke-linejoin="miter" d="M 192.017071 0.00145207 C 85.970196 0.00145207 0.00144607 85.970202 0.00144607 192.017077 C 0.00144607 298.063953 85.970196 384.032703 192.017071 384.032703 C 298.063947 384.032703 384.032697 298.063953 384.032697 192.017077 C 384.032697 85.970202 298.063947 0.00145207 192.017071 0.00145207 Z M 192.017071 0.00145207 " stroke="#a6c2f5" stroke-width="44" stroke-opacity="1" stroke-miterlimit="4"/></g></g><g clip-path="url(#979609f37f)"><path fill="#ffffff" d="M 156.851562 218.675781 C 156.851562 218.675781 170.753906 232.210938 188.804688 232.210938 C 198.558594 232.210938 207.394531 227.167969 207.394531 216.6875 C 207.394531 195.023438 146.382812 197.191406 146.382812 158.382812 C 146.382812 139.792969 160.285156 125.34375 180.316406 122.089844 L 180.316406 105.125 L 195.839844 105.125 L 195.839844 121.730469 C 216.789062 123.53125 227.617188 134.90625 227.617188 134.90625 L 217.550781 153.921875 C 217.550781 153.921875 205.246094 142.734375 189.210938 142.734375 C 178.382812 142.734375 169.894531 149.054688 169.894531 158.082031 C 169.894531 179.566406 230.738281 175.773438 230.738281 216.238281 C 230.738281 234.648438 217.917969 250.363281 195.886719 253.25 L 195.886719 269.855469 L 180.316406 269.855469 L 180.316406 253.160156 C 157.03125 250.453125 144.214844 236.191406 144.214844 236.191406 Z M 156.851562 218.675781 " fill-opacity="1" fill-rule="nonzero"/></g></svg>