<svg xmlns="http://www.w3.org/2000/svg" xmlns:xlink="http://www.w3.org/1999/xlink" width="500" zoomAndPan="magnify" viewBox="0 0 375 374.999991" height="500" preserveAspectRatio="xMidYMid meet" version="1.0"><defs><clipPath id="452a769b4f"><path d="M 19.609375 19.609375 L 355.390625 19.609375 L 355.390625 355.390625 L 19.609375 355.390625 Z M 19.609375 19.609375 " clip-rule="nonzero"/></clipPath><clipPath id="539208775f"><path d="M 187.5 19.609375 C 94.777344 19.609375 19.609375 94.777344 19.609375 187.5 C 19.609375 280.222656 94.777344 355.390625 187.5 355.390625 C 280.222656 355.390625 355.390625 280.222656 355.390625 187.5 C 355.390625 94.777344 280.222656 19.609375 187.5 19.609375 Z M 187.5 19.609375 " clip-rule="nonzero"/></clipPath><clipPath id="c5fa519e21"><path d="M 84.578125 92.425781 L 290.078125 92.425781 L 290.078125 282.925781 L 84.578125 282.925781 Z M 84.578125 92.425781 " clip-rule="nonzero"/></clipPath></defs><g clip-path="url(#452a769b4f)"><g clip-path="url(#539208775f)"><path fill="#26a17b" d="M 19.609375 19.609375 L 355.390625 19.609375 L 355.390625 355.390625 L 19.609375 355.390625 Z M 19.609375 19.609375 " fill-opacity="1" fill-rule="nonzero"/></g></g><g clip-path="url(#c5fa519e21)"><path fill="#ffffff" d="M 290.242188 182.289062 C 290.242188 169.332031 254.984375 158.519531 208.132812 156.027344 L 208.128906 135.378906 L 266.628906 135.378906 L 266.628906 92.414062 L 106.664062 92.414062 L 106.664062 135.378906 L 165.160156 135.378906 L 165.160156 156.128906 C 119.160156 158.792969 84.75 169.488281 84.75 182.289062 C 84.75 195.085938 119.160156 205.785156 165.160156 208.449219 L 165.160156 282.582031 L 208.128906 282.582031 L 208.128906 208.546875 C 254.984375 206.058594 290.242188 195.246094 290.242188 182.289062 Z M 187.496094 195.050781 C 137.207031 195.050781 96.4375 187.269531 96.4375 177.660156 C 96.4375 169.527344 125.671875 162.695312 165.160156 160.796875 L 165.160156 165.695312 L 165.164062 165.695312 L 165.164062 185.757812 C 172.285156 186.15625 179.765625 186.367188 187.496094 186.367188 C 194.613281 186.367188 201.527344 186.1875 208.132812 185.855469 L 208.132812 160.722656 C 248.480469 162.507812 278.558594 169.40625 278.558594 177.660156 C 278.558594 187.269531 237.785156 195.050781 187.496094 195.050781 " fill-opacity="1" fill-rule="nonzero"/></g></svg>