<svg xmlns="http://www.w3.org/2000/svg" xmlns:xlink="http://www.w3.org/1999/xlink" width="500" zoomAndPan="magnify" viewBox="0 0 375 374.999991" height="500" preserveAspectRatio="xMidYMid meet" version="1.0"><defs><clipPath id="68d49bca6e"><path d="M 19.609375 19.609375 L 355.390625 19.609375 L 355.390625 355.390625 L 19.609375 355.390625 Z M 19.609375 19.609375 " clip-rule="nonzero"/></clipPath><clipPath id="322ce388aa"><path d="M 187.5 19.609375 C 94.777344 19.609375 19.609375 94.777344 19.609375 187.5 C 19.609375 280.222656 94.777344 355.390625 187.5 355.390625 C 280.222656 355.390625 355.390625 280.222656 355.390625 187.5 C 355.390625 94.777344 280.222656 19.609375 187.5 19.609375 Z M 187.5 19.609375 " clip-rule="nonzero"/></clipPath><clipPath id="0642427dc6"><path d="M 84.609375 166 L 290.109375 166 L 290.109375 296.828125 L 84.609375 296.828125 Z M 84.609375 166 " clip-rule="nonzero"/></clipPath><clipPath id="ba02b6ed55"><path d="M 170 77.828125 L 205 77.828125 L 205 145 L 170 145 Z M 170 77.828125 " clip-rule="nonzero"/></clipPath><clipPath id="1ec79d6dcc"><path d="M 214 118 L 290.109375 118 L 290.109375 172 L 214 172 Z M 214 118 " clip-rule="nonzero"/></clipPath><clipPath id="aba3eb35cf"><path d="M 84.609375 118 L 160 118 L 160 172 L 84.609375 172 Z M 84.609375 118 " clip-rule="nonzero"/></clipPath></defs><g clip-path="url(#68d49bca6e)"><g clip-path="url(#322ce388aa)"><path fill="#108d4a" d="M 19.609375 19.609375 L 355.390625 19.609375 L 355.390625 355.390625 L 19.609375 355.390625 Z M 19.609375 19.609375 " fill-opacity="1" fill-rule="nonzero"/></g></g><g clip-path="url(#0642427dc6)"><path fill="#ffffff" d="M 191.132812 166.972656 C 194.292969 168.761719 196.902344 170.707031 199.699219 172.996094 C 204.3125 176.433594 209.523438 178.972656 214.574219 181.710938 C 222.546875 186.152344 230.476562 190.660156 238.324219 195.320312 C 243.851562 198.597656 249.410156 201.816406 254.976562 205.023438 C 258.445312 207.019531 261.90625 209.023438 265.371094 211.023438 C 269.378906 213.339844 273.398438 215.632812 277.4375 217.894531 C 279.03125 218.804688 280.628906 219.710938 282.222656 220.617188 C 282.945312 221.015625 283.667969 221.410156 284.410156 221.820312 C 289.082031 224.496094 289.082031 224.496094 290.257812 226.855469 C 290.457031 230.351562 288.984375 232.375 287.257812 235.386719 C 286.925781 235.972656 286.589844 236.558594 286.246094 237.160156 C 285.539062 238.394531 284.820312 239.625 284.101562 240.855469 C 283 242.734375 281.925781 244.625 280.855469 246.523438 C 280.160156 247.722656 279.46875 248.917969 278.769531 250.113281 C 277.824219 251.746094 277.824219 251.746094 276.855469 253.414062 C 274.957031 255.921875 274.957031 255.921875 272.992188 256.96875 C 269.90625 256.941406 268.171875 255.792969 265.527344 254.21875 C 264.472656 253.597656 263.414062 252.976562 262.324219 252.335938 C 261.1875 251.652344 260.050781 250.96875 258.878906 250.261719 C 257.691406 249.558594 256.5 248.855469 255.3125 248.15625 C 252.824219 246.691406 250.34375 245.222656 247.863281 243.746094 C 241.878906 240.199219 235.84375 236.75 229.8125 233.285156 C 221.523438 228.511719 213.253906 223.703125 204.992188 218.882812 C 204.992188 244.6875 204.992188 270.492188 204.992188 297.078125 C 193.445312 297.078125 181.902344 297.078125 170.007812 297.078125 C 170.007812 271.273438 170.007812 245.46875 170.007812 218.882812 C 161.179688 223.972656 152.351562 229.066406 143.257812 234.316406 C 140.605469 235.84375 137.957031 237.371094 135.226562 238.945312 C 134.160156 239.558594 133.097656 240.171875 132 240.804688 C 129.929688 242 127.863281 243.191406 125.792969 244.382812 C 124.746094 244.984375 123.699219 245.589844 122.621094 246.210938 C 121.117188 247.074219 121.117188 247.074219 119.585938 247.953125 C 117.414062 249.21875 115.265625 250.515625 113.128906 251.835938 C 112.03125 252.503906 110.9375 253.171875 109.808594 253.863281 C 108.824219 254.480469 107.839844 255.09375 106.824219 255.730469 C 104.160156 256.949219 104.160156 256.949219 101.984375 256.992188 C 98.996094 255.347656 97.925781 253.042969 96.230469 250.113281 C 95.890625 249.53125 95.550781 248.949219 95.199219 248.347656 C 94.488281 247.117188 93.78125 245.878906 93.082031 244.640625 C 92.007812 242.746094 90.90625 240.867188 89.804688 238.992188 C 89.113281 237.789062 88.425781 236.589844 87.738281 235.386719 C 87.113281 234.296875 86.488281 233.203125 85.84375 232.078125 C 84.609375 229.171875 84.609375 229.171875 84.613281 226.925781 C 86.101562 224.203125 87.949219 223.324219 90.648438 221.820312 C 92.25 220.914062 92.25 220.914062 93.878906 219.992188 C 95.042969 219.347656 96.207031 218.707031 97.40625 218.046875 C 98.621094 217.363281 99.835938 216.675781 101.050781 215.992188 C 103.574219 214.566406 106.101562 213.148438 108.632812 211.734375 C 114.375 208.515625 120.066406 205.203125 125.765625 201.902344 C 127.988281 200.621094 130.210938 199.339844 132.433594 198.058594 C 138.101562 194.785156 143.773438 191.515625 149.4375 188.238281 C 151.683594 186.941406 153.9375 185.65625 156.195312 184.375 C 161.550781 181.332031 166.773438 178.210938 171.871094 174.75 C 185.007812 166.019531 185.007812 166.019531 191.132812 166.972656 Z M 191.132812 166.972656 " fill-opacity="1" fill-rule="nonzero"/></g><g clip-path="url(#ba02b6ed55)"><path fill="#ffffff" d="M 170.007812 77.921875 C 181.550781 77.921875 193.097656 77.921875 204.992188 77.921875 C 204.992188 99.992188 204.992188 122.0625 204.992188 144.800781 C 193.445312 144.800781 181.902344 144.800781 170.007812 144.800781 C 170.007812 122.730469 170.007812 100.660156 170.007812 77.921875 Z M 170.007812 77.921875 " fill-opacity="1" fill-rule="nonzero"/></g><g clip-path="url(#1ec79d6dcc)"><path fill="#ffffff" d="M 272.890625 118.085938 C 276.046875 119.601562 277.03125 121.886719 278.769531 124.886719 C 279.109375 125.46875 279.449219 126.050781 279.796875 126.648438 C 280.511719 127.882812 281.21875 129.117188 281.917969 130.359375 C 282.992188 132.253906 284.089844 134.128906 285.195312 136.007812 C 285.886719 137.207031 286.574219 138.410156 287.257812 139.609375 C 287.886719 140.703125 288.511719 141.796875 289.15625 142.921875 C 290.390625 145.828125 290.390625 145.828125 290.402344 148.070312 C 288.855469 150.859375 286.859375 151.738281 284.066406 153.242188 C 282.964844 153.847656 281.863281 154.453125 280.730469 155.074219 C 279.566406 155.695312 278.40625 156.316406 277.207031 156.953125 C 274.949219 158.179688 272.691406 159.410156 270.433594 160.640625 C 269.3125 161.242188 268.1875 161.84375 267.03125 162.464844 C 262.59375 164.929688 258.300781 167.609375 254.019531 170.335938 C 250.710938 171.808594 249.53125 171.710938 246.148438 170.523438 C 244.054688 169.484375 241.996094 168.363281 239.972656 167.191406 C 238.808594 166.515625 237.640625 165.839844 236.4375 165.148438 C 235.835938 164.792969 235.234375 164.441406 234.613281 164.078125 C 232.78125 163.003906 230.945312 161.945312 229.105469 160.886719 C 223.867188 157.839844 218.914062 154.863281 214.25 150.972656 C 221.476562 145.921875 229.027344 141.628906 236.757812 137.40625 C 239.222656 136.054688 241.6875 134.699219 244.148438 133.339844 C 244.757812 133.007812 245.367188 132.671875 245.992188 132.328125 C 249.804688 130.21875 253.570312 128.042969 257.308594 125.808594 C 258.203125 125.277344 259.09375 124.746094 260.015625 124.195312 C 261.664062 123.207031 263.304688 122.210938 264.9375 121.199219 C 265.664062 120.765625 266.390625 120.328125 267.140625 119.882812 C 267.761719 119.5 268.378906 119.117188 269.019531 118.726562 C 270.839844 118.046875 270.839844 118.046875 272.890625 118.085938 Z M 272.890625 118.085938 " fill-opacity="1" fill-rule="nonzero"/></g><g clip-path="url(#aba3eb35cf)"><path fill="#ffffff" d="M 101.070312 118.046875 C 105.023438 118.523438 107.855469 119.800781 111.253906 121.820312 C 112.222656 122.394531 113.195312 122.96875 114.195312 123.558594 C 115.234375 124.179688 116.273438 124.804688 117.339844 125.445312 C 119.550781 126.753906 121.757812 128.0625 123.96875 129.371094 C 125.675781 130.386719 125.675781 130.386719 127.417969 131.421875 C 130.890625 133.472656 134.382812 135.488281 137.882812 137.496094 C 139 138.140625 140.117188 138.78125 141.265625 139.445312 C 143.414062 140.675781 145.5625 141.90625 147.714844 143.132812 C 148.6875 143.695312 149.664062 144.257812 150.667969 144.839844 C 151.523438 145.332031 152.378906 145.820312 153.261719 146.324219 C 155.746094 147.980469 157.683594 149.828125 159.71875 152.003906 C 158.449219 152.726562 158.449219 152.726562 157.15625 153.464844 C 154 155.265625 150.847656 157.066406 147.691406 158.867188 C 146.332031 159.644531 144.96875 160.421875 143.605469 161.199219 C 141.640625 162.320312 139.679688 163.441406 137.714844 164.5625 C 137.109375 164.90625 136.507812 165.25 135.886719 165.605469 C 133.265625 167.101562 130.714844 168.597656 128.234375 170.316406 C 125.765625 171.550781 125.765625 171.550781 123.214844 171.417969 C 120.273438 170.402344 117.796875 169.105469 115.113281 167.523438 C 114.066406 166.910156 113.023438 166.296875 111.945312 165.664062 C 110.859375 165.015625 109.777344 164.371094 108.660156 163.707031 C 107.070312 162.773438 107.070312 162.773438 105.449219 161.820312 C 103.324219 160.566406 101.207031 159.304688 99.097656 158.027344 C 96.941406 156.726562 94.761719 155.457031 92.570312 154.21875 C 91.527344 153.605469 90.484375 152.996094 89.40625 152.363281 C 87.988281 151.554688 87.988281 151.554688 86.535156 150.726562 C 85.582031 149.828125 85.582031 149.828125 84.609375 148.914062 C 84.632812 144.679688 86.738281 141.480469 88.851562 137.902344 C 89.496094 136.808594 90.136719 135.71875 90.796875 134.589844 C 91.808594 132.894531 91.808594 132.894531 92.839844 131.167969 C 93.515625 130.019531 94.1875 128.875 94.882812 127.695312 C 99.859375 119.257812 99.859375 119.257812 101.070312 118.046875 Z M 101.070312 118.046875 " fill-opacity="1" fill-rule="nonzero"/></g></svg>